# xmcd
#
# Track frame offsets: 
#        150
#        22844
#        46441
#        70219
#        90519
#
# Disc length: 1493 seconds
#
# Revision: 0
# Processed by: cddbd v1.5.2PL0 Copyright (c) Steve Scherf et al.
# Submitted via: ExactAudioCopyFreeDBPlugin 1.0
#
DISCID=3405d305
DTITLE=Dana Masters - Live at McHugh's Basement, Belfast
DYEAR=1900
DGENRE=Blues
TTITLE0=Motherless Child
TTITLE1=Funny Valentine
TTITLE2=Like a Star
TTITLE3=Blue Moon
TTITLE4=Smile
EXTD=
EXTT0=
EXTT1=
EXTT2=
EXTT3=
EXTT4=
PLAYORDER=
